<svg width="800" height="800" viewBox="0 0 512 512" xmlns="http://www.w3.org/2000/svg"><path d="m426.667 320-.001 64h64v42.667l-64-.001v64H384l-.001-64H320V384h63.999l.001-64h42.667zM256 85.333C405.333 85.333 469.333 256 469.333 256s-6.86 18.294-21.329 42.903l-.004-.236-50.682-.001c11.605-16.455 20.01-31.9 25.303-42.674C404.596 219.303 350.261 128 256 128c-94.219 0-148.548 91.223-166.62 128.007C107.404 292.697 161.738 384 256 384c15.265 0 29.482-2.394 42.668-6.564v44.357c-13.366 3.132-27.582 4.874-42.668 4.874C106.667 426.667 42.667 256 42.667 256S106.667 85.333 256 85.333zm0 96c41.237 0 74.667 33.43 74.667 74.667s-33.43 74.667-74.667 74.667-74.667-33.43-74.667-74.667 33.43-74.667 74.667-74.667zM256 224c-17.645 0-32 14.355-32 32s14.355 32 32 32 32-14.355 32-32-14.355-32-32-32z" fill="#000" fill-rule="evenodd"/></svg>