<svg width="800" height="800" viewBox="0 0 24 24" fill="none" xmlns="http://www.w3.org/2000/svg"><path clip-rule="evenodd" d="M15.6 13c0 2.21-1.746 4-3.9 4s-3.9-1.79-3.9-4 1.746-4 3.9-4c1.034 0 2.026.421 2.758 1.172A4.052 4.052 0 0 1 15.6 13z" stroke="#000" stroke-width="1.5" stroke-linecap="round" stroke-linejoin="round"/><path d="M8.775 6.75a.75.75 0 0 0 0-1.5v1.5zm5.85-1.5a.75.75 0 0 0 0 1.5v-1.5zm-5.85 0a.75.75 0 0 0 0 1.5v-1.5zm5.85 1.5a.75.75 0 0 0 0-1.5v1.5zM9.525 6a.75.75 0 0 0-1.5 0h1.5zm-1.5 1a.75.75 0 0 0 1.5 0h-1.5zm0-1a.75.75 0 0 0 1.5 0h-1.5zm1.5-2a.75.75 0 0 0-1.5 0h1.5zm5.85 2a.75.75 0 0 0-1.5 0h1.5zm-1.5 1a.75.75 0 0 0 1.5 0h-1.5zm0-1a.75.75 0 0 0 1.5 0h-1.5zm1.5-2a.75.75 0 0 0-1.5 0h1.5zm-3.482 7.857a.75.75 0 0 0-1.5 0h1.5zm-.75 1.714h-.75c0 .414.336.75.75.75v-.75zm1.671.75a.75.75 0 0 0 0-1.5v1.5zM8.775 5.25c-2.586 0-4.65 2.145-4.65 4.75h1.5c0-1.813 1.428-3.25 3.15-3.25v-1.5zM4.125 10v6h1.5v-6h-1.5zm0 6c0 2.605 2.064 4.75 4.65 4.75v-1.5c-1.722 0-3.15-1.437-3.15-3.25h-1.5zm4.65 4.75h5.85v-1.5h-5.85v1.5zm5.85 0c2.586 0 4.65-2.145 4.65-4.75h-1.5c0 1.813-1.428 3.25-3.15 3.25v1.5zm4.65-4.75v-6h-1.5v6h1.5zm0-6c0-2.605-2.064-4.75-4.65-4.75v1.5c1.722 0 3.15 1.437 3.15 3.25h1.5zm-10.5-3.25h5.85v-1.5h-5.85v1.5zM8.025 6v1h1.5V6h-1.5zm1.5 0V4h-1.5v2h1.5zm4.35 0v1h1.5V6h-1.5zm1.5 0V4h-1.5v2h1.5zm-4.982 5.857v1.714h1.5v-1.714h-1.5zm.75 2.464h1.671v-1.5h-1.67v1.5z" fill="#000"/></svg>