<svg width="800" height="800" viewBox="0 -0.5 25 25" fill="none" xmlns="http://www.w3.org/2000/svg"><path clip-rule="evenodd" d="M15 7a2 2 0 1 0-4 0h4z" stroke="#000" stroke-width="1.5" stroke-linecap="round" stroke-linejoin="round"/><path d="M10.53 12.47a.75.75 0 1 0-1.06 1.06l1.06-1.06zM12 15l-.53.53a.75.75 0 0 0 1.06 0L12 15zm4.53-3.47a.75.75 0 0 0-1.06-1.06l1.06 1.06zM15 6.25a.75.75 0 0 0 0 1.5v-1.5zm1.667.75v.75h.024L16.667 7zM18.5 8.714h.75v-.026l-.75.026zm0 8.571.75.026v-.026h-.75zM16.667 19l.024-.75h-.024V19zm-7.334 0v-.75h-.024l.024.75zM7.5 17.286h-.75v.026l.75-.026zm0-8.572-.75-.026v.026h.75zM9.333 7l-.024.75h.024V7zM11 7.75a.75.75 0 0 0 0-1.5v1.5zm-1.53 5.78 2 2 1.06-1.06-2-2-1.06 1.06zm3.06 2 4-4-1.06-1.06-4 4 1.06 1.06zM15 7.75h1.667v-1.5H15v1.5zm1.691 0a1.027 1.027 0 0 1 1.06.99l1.498-.052a2.527 2.527 0 0 0-2.606-2.438l.048 1.5zm1.059.964v8.571h1.5V8.714h-1.5zm0 8.545a1.027 1.027 0 0 1-1.059.991l-.048 1.5a2.527 2.527 0 0 0 2.607-2.44l-1.5-.05zm-1.083.991H9.333v1.5h7.334v-1.5zm-7.358 0a1.027 1.027 0 0 1-1.06-.99l-1.499.052a2.527 2.527 0 0 0 2.607 2.438l-.048-1.5zm-1.059-.964V8.714h-1.5v8.572h1.5zm0-8.546a1.027 1.027 0 0 1 1.059-.99l.048-1.5A2.527 2.527 0 0 0 6.75 8.688l1.5.052zm1.083-.99H11v-1.5H9.333v1.5z" fill="#000"/></svg>