<svg width="800" height="800" viewBox="0 -0.5 25 25" fill="none" xmlns="http://www.w3.org/2000/svg"><path clip-rule="evenodd" d="M18.1 5H6.9a1.379 1.379 0 0 0-1.4 1.358V14.5a1.38 1.38 0 0 0 1.4 1.358h3.87c.218-.001.434.048.63.142l5.651 3L17 14.5h1.43c.58.01 1.06-.453 1.07-1.034V6.358A1.379 1.379 0 0 0 18.1 5z" stroke="#000" stroke-width="1.5" stroke-linecap="round" stroke-linejoin="round"/><path d="M8.5 8.25a.75.75 0 0 0 0 1.5v-1.5zm8 1.5a.75.75 0 0 0 0-1.5v1.5zm-8 1.5a.75.75 0 0 0 0 1.5v-1.5zm6 1.5a.75.75 0 1 0 0-1.5v1.5zm-6-3h8v-1.5h-8v1.5zm0 3h6v-1.5h-6v1.5z" fill="#000"/></svg>