<svg width="800" height="800" viewBox="0 -0.5 25 25" fill="none" xmlns="http://www.w3.org/2000/svg"><path d="M3.156 7.882a.75.75 0 1 0 .688 1.333l-.688-1.333zm2.938.171a.75.75 0 0 0-.688-1.333l.688 1.333zM5.406 6.72a.75.75 0 1 0 .688 1.333L5.406 6.72zm3.069-.74.344.667h.001l-.345-.666zm8.05 0-.345.667h.001l.344-.666zm2.381 2.073a.75.75 0 0 0 .688-1.333l-.688 1.333zM6.5 7.387a.75.75 0 1 0-1.5 0h1.5zm-.75 7.432.75.033v-.033h-.75zm3.808 4.18-.037.75a.74.74 0 0 0 .037 0V19zm5.885 0v.75a.75.75 0 0 0 .037 0l-.037-.75zm3.807-4.18h-.75v.033l.75-.033zM20 7.387a.75.75 0 0 0-1.5 0H20zm-.406-.667a.75.75 0 1 0-.688 1.333l.688-1.333zm1.562 2.495a.75.75 0 1 0 .688-1.333l-.688 1.333zM9.75 19a.75.75 0 0 0 1.5 0h-1.5zm.75-2.231h.75v-.018l-.75.018zm2.125-2.23.019-.75h-.038l.019.75zm2.125 2.23-.75-.017v.018h.75zM14 19a.75.75 0 0 0 1.5 0H14zM3.844 9.216l2.25-1.162-.688-1.333-2.25 1.162.688 1.333zm2.25-1.162 2.725-1.406-.688-1.333L5.406 6.72l.688 1.333zM8.82 6.647a8 8 0 0 1 7.36 0l.69-1.332c-2.74-1.42-6-1.42-8.74 0l.69 1.332zm7.361 0 2.725 1.406.688-1.333-2.725-1.406-.688 1.333zM5 7.387v7.432h1.5V7.387H5zm0 7.398a4.757 4.757 0 0 0 4.521 4.964l.073-1.498A3.257 3.257 0 0 1 6.5 14.852l-1.498-.067zm4.558 4.965h5.885v-1.5H9.558v1.5zm5.922-.001A4.757 4.757 0 0 0 20 14.785l-1.5.067a3.257 3.257 0 0 1-3.094 3.399l.074 1.498zm4.52-4.93V7.387h-1.5v7.432H20zm-1.094-6.766 2.25 1.162.688-1.333-2.25-1.162-.688 1.333zM11.25 19v-2.231h-1.5v2.23h1.5zm0-2.249a1.43 1.43 0 0 1 1.394-1.462l-.038-1.5a2.93 2.93 0 0 0-2.856 2.997l1.5-.035zm1.356-1.462A1.43 1.43 0 0 1 14 16.752l1.5.036a2.93 2.93 0 0 0-2.856-2.999l-.038 1.5zM14 16.769V19h1.5v-2.23H14z" fill="#000"/></svg>