<svg width="800" height="800" viewBox="0 -0.5 25 25" fill="none" xmlns="http://www.w3.org/2000/svg"><path clip-rule="evenodd" d="M3.5 7v10a2 2 0 0 0 2 2h14a2 2 0 0 0 2-2V7a2 2 0 0 0-2-2h-14a2 2 0 0 0-2 2z" stroke="#000" stroke-width="1.5" stroke-linecap="round" stroke-linejoin="round"/><path d="M15.5 10h3M15.5 13h3" stroke="#000" stroke-width="1.5" stroke-linecap="round"/><path clip-rule="evenodd" d="M11.5 10a2 2 0 1 1-4 0 2 2 0 0 1 4 0z" stroke="#000" stroke-width="1.5" stroke-linecap="round" stroke-linejoin="round"/><path d="M5.5 16c2.783-3.137 6.052-2.151 8 0" stroke="#000" stroke-width="1.5" stroke-linecap="round"/></svg>