<svg width="800" height="800" viewBox="0 -0.5 25 25" fill="none" xmlns="http://www.w3.org/2000/svg"><path clip-rule="evenodd" d="M7.305 15.714A6.313 6.313 0 0 1 5.618 12.5a6.383 6.383 0 0 1 .351-3.625 6.253 6.253 0 0 1 2.27-2.817 6.071 6.071 0 0 1 6.848 0 6.252 6.252 0 0 1 2.27 2.817 6.382 6.382 0 0 1 .351 3.625 6.312 6.312 0 0 1-1.687 3.214 6.085 6.085 0 0 1-8.716 0v0z" stroke="#000" stroke-width="1.5" stroke-linecap="round" stroke-linejoin="round"/><path d="M11.67 7.203a.75.75 0 0 0 .158 1.492l-.158-1.492zm1.852 2.49a.75.75 0 1 0 1.38-.586l-1.38.585zm3.12 5.394a.75.75 0 1 0-1.06 1.061l1.06-1.061zm2.328 4.444a.75.75 0 1 0 1.06-1.062l-1.06 1.061zM11.828 8.694a1.65 1.65 0 0 1 1.694.997l1.38-.585a3.15 3.15 0 0 0-3.232-1.904l.158 1.492zm3.754 7.453 3.388 3.383 1.06-1.062-3.388-3.382-1.06 1.061z" fill="#000"/></svg>