<svg width="800" height="800" viewBox="0 0 512 512" xmlns="http://www.w3.org/2000/svg" transform="rotate(-90)"><path d="M394.667 320c-21.688 0-41.047 9.396-54.688 24.161l-149.203-65.358c.654-3.972 1.224-7.979 1.224-12.136 0-7.769-1.522-15.11-3.723-22.154l151.995-76.319C353.898 182.764 373.145 192 394.667 192c41.237 0 74.666-33.43 74.666-74.667s-33.43-74.666-74.666-74.666c-41.237 0-74.667 33.43-74.667 74.666 0 4.34.566 8.534 1.277 12.67l-157.155 78.91C151.286 198.499 135.15 192 117.333 192c-41.237 0-74.666 33.43-74.666 74.667s33.43 74.666 74.666 74.666c21.688 0 41.047-9.396 54.688-24.161l149.203 65.358c-.654 3.973-1.224 7.979-1.224 12.137 0 41.237 33.43 74.666 74.667 74.666s74.666-33.43 74.666-74.666c0-41.237-33.43-74.667-74.666-74.667zm0-234.667c17.644 0 32 14.356 32 32 0 17.645-14.356 32-32 32-17.645 0-32-14.355-32-32 0-17.644 14.355-32 32-32zM117.333 298.667c-17.644 0-32-14.356-32-32 0-17.645 14.356-32 32-32 17.645 0 32 14.355 32 32 0 17.644-14.355 32-32 32zm277.334 128c-17.645 0-32-14.356-32-32 0-17.645 14.355-32 32-32 17.644 0 32 14.355 32 32 0 17.644-14.356 32-32 32z" fill="#000" fill-rule="evenodd"/></svg>