<svg width="800" height="800" viewBox="0 0 512 512" xmlns="http://www.w3.org/2000/svg"><path d="m426.667 320-.001 64h64v42.667l-64-.001v64H384v-64h-64V384h64v-64h42.667zm-192-301.36 56.849 136.682 147.56 11.83-112.425 96.304 23.664 99.21h-51.648v6.711l-64-39.09-126.332 77.163 34.347-143.994-112.425-96.304 147.56-11.83 56.85-136.682zm0 111.067-27.463 66.063-71.29 5.702 54.317 46.535-16.599 69.561 61.035-37.277 61.013 37.277-16.578-69.561 54.295-46.535-71.268-5.702-27.462-66.063z" fill="#000" fill-rule="evenodd"/></svg>